<svg width="24" height="24" viewBox="0 0 24 24" fill="none" xmlns="http://www.w3.org/2000/svg">
<path fill-rule="evenodd" clip-rule="evenodd" d="M4.26035 4.26035C4.60748 3.91322 5.17029 3.91322 5.51743 4.26035L19.7396 18.4826C20.0867 18.8297 20.0867 19.3925 19.7396 19.7396C19.3925 20.0868 18.8297 20.0868 18.4825 19.7396L4.26035 5.51743C3.91322 5.1703 3.91322 4.60748 4.26035 4.26035Z" fill="white"/>
<path fill-rule="evenodd" clip-rule="evenodd" d="M19.7396 4.26035C20.0868 4.60748 20.0868 5.1703 19.7396 5.51743L5.51747 19.7396C5.17034 20.0868 4.60753 20.0868 4.26039 19.7396C3.91326 19.3925 3.91326 18.8297 4.26039 18.4826L18.4826 4.26035C18.8297 3.91322 19.3925 3.91322 19.7396 4.26035Z" fill="white"/>
</svg>
