<svg width="100" height="17" viewBox="0 0 100 17" fill="none" xmlns="http://www.w3.org/2000/svg">
<path fill-rule="evenodd" clip-rule="evenodd" d="M24.6895 6.76707L24.6903 7.42519C24.6908 7.78064 24.6912 8.13608 24.6912 8.49153L24.6828 8.49235C24.6828 8.6672 24.6833 8.84206 24.6841 9.01691L24.6866 9.48494C24.6903 10.1467 24.694 10.8082 24.6828 11.4693C24.6552 13.1138 25.4178 14.2583 26.8526 14.9982C28.4619 15.8289 30.213 16.1067 31.9808 16.2745C35.1413 16.5752 38.3233 16.5752 41.4838 16.2745C43.0394 16.1319 44.5883 15.8944 46.0474 15.2819C47.9772 14.4622 48.8624 13.3185 48.8162 11.2074C48.7787 9.5405 48.7915 7.87356 48.8042 6.20711L48.8095 5.50195C48.8212 3.89269 48.0728 2.77179 46.675 2.03418C45.1739 1.24217 43.5386 0.948507 41.884 0.775618C38.2817 0.385922 34.6465 0.40952 31.0495 0.846085C29.577 1.03077 28.128 1.32853 26.8006 2.03762C25.4959 2.73393 24.703 3.77274 24.6912 5.30317L24.6899 5.77759C24.6892 6.10747 24.6893 6.43735 24.6895 6.76707ZM40.0315 8.5225H40.0457C40.0449 8.76258 40.0461 9.00266 40.0473 9.2429C40.05 9.7714 40.0527 10.3001 40.0424 10.829C40.0298 11.6479 39.7999 11.9954 39.0011 12.1632C38.318 12.3016 37.6223 12.3688 36.9253 12.3637C36.1173 12.368 35.3104 12.3018 34.5139 12.1656C33.6908 12.0155 33.4508 11.642 33.4508 10.8132C33.4458 9.26256 33.4458 7.71197 33.4508 6.16155C33.4534 5.37609 33.6874 4.97427 34.4669 4.86677C35.5518 4.71748 36.6568 4.68978 37.7534 4.67307C38.2334 4.66553 38.7242 4.77713 39.1924 4.90036C39.716 5.03802 40.0315 5.40215 40.0315 5.96686C40.0356 6.81853 40.0315 7.67084 40.0315 8.5225Z" fill="white"/>
<path fill-rule="evenodd" clip-rule="evenodd" d="M8.73694 16.0934V11.5011C8.95762 11.5011 9.10949 11.5054 9.26052 11.5003C9.60361 11.4895 9.94671 11.4795 10.2898 11.4698C10.6975 11.4583 11.1052 11.4474 11.5129 11.4364H11.5143L11.5312 11.4359C13.3866 11.3859 15.2419 11.3359 17.0946 11.2335C18.474 11.1571 19.8316 10.8592 21.0902 10.2207C22.2371 9.63751 22.9327 8.73882 22.9797 7.42077C23.0074 6.60926 23.0149 5.79709 22.9839 4.98738C22.9402 3.84468 22.4293 2.935 21.4157 2.38635C20.8178 2.0568 20.1848 1.79525 19.5287 1.60679C17.6023 1.07223 15.6171 0.944738 13.6302 0.9313C9.78019 0.905735 5.92951 0.906227 2.07872 0.906719L0.37337 0.907046C0.310708 0.907046 0.248517 0.910815 0.184913 0.916387C0.136324 0.920648 0.0869154 0.926056 0.0358682 0.931628L0.0319967 0.932119L0 0.935561V16.0934H8.73694ZM8.77219 7.60365V4.79352C9.22322 4.80941 9.6717 4.82105 10.1182 4.83268L10.1352 4.83317H10.1406C11.1781 4.86038 12.2048 4.88725 13.2275 4.96395C14.0414 5.02688 14.2478 5.39183 14.2343 6.30641C14.2226 7.03812 13.9566 7.40979 13.1948 7.45764C12.1744 7.52155 11.1512 7.54531 10.1165 7.56924C9.67072 7.57956 9.22287 7.59005 8.77219 7.60365Z" fill="white"/>
<path d="M65.0653 6.10698L65.06 6.06322C65.0553 6.02275 65.0514 5.98309 65.0502 5.94179C65.02 5.12291 64.8891 4.92904 64.0887 4.78139C62.7785 4.5459 61.4364 4.54967 60.1275 4.79237C59.5327 4.89971 59.3095 5.13634 59.2885 5.56586C59.2549 6.12894 59.4513 6.40998 60.1124 6.51323C60.98 6.64826 61.8568 6.7356 62.7336 6.79099C63.4445 6.83606 64.1554 6.86834 64.8656 6.90063L64.8745 6.90112C65.8376 6.94504 66.7994 6.98879 67.7578 7.0645C69.1842 7.1761 70.5845 7.42781 71.8766 8.09151C73.1688 8.75521 73.8702 9.78975 73.8316 11.2856C73.8298 11.3567 73.8284 11.4278 73.827 11.4988L73.827 11.5008C73.8135 12.17 73.8002 12.8337 73.5069 13.4614C73.0639 14.4094 72.2676 14.9523 71.3464 15.3433C69.9938 15.9172 68.5566 16.137 67.1084 16.2746C64.2533 16.5465 61.3802 16.5724 58.5208 16.3518C56.6094 16.2042 54.7157 15.9323 52.9545 15.0933C51.1464 14.2349 50.3384 12.8278 50.5213 10.7999H59.2247C59.2348 10.898 59.2482 10.9787 59.2499 11.0599C59.2667 11.8697 59.4445 12.1122 60.2374 12.2346C61.5093 12.4426 62.8066 12.4403 64.0777 12.2279C64.4033 12.1725 64.7968 11.9762 64.9763 11.7186C65.3212 11.2227 64.9763 10.6229 64.2967 10.4995C63.5963 10.3735 62.8892 10.2873 62.179 10.2411C61.3553 10.187 60.5309 10.1429 59.7064 10.0988C58.549 10.0369 57.3915 9.97493 56.2361 9.88529C55.0908 9.80434 53.9682 9.52608 52.9176 9.06313C51.4283 8.39189 50.6799 7.28688 50.6682 5.61715C50.6531 3.48087 51.5852 2.39274 53.5738 1.60237C55.2812 0.924417 57.0977 0.728094 58.9076 0.611415C61.4247 0.450325 63.9418 0.437707 66.4455 0.751529C68.2125 0.982265 69.951 1.31788 71.5175 2.23657C73.0135 3.11428 73.7888 4.38203 73.6151 6.1935H65.0753C65.0723 6.16335 65.0688 6.13484 65.0653 6.10698Z" fill="white"/>
<path d="M99.0489 6.19268V0.906719H75.5112V6.19268H82.9208V16.0934H91.6821V6.19268H99.0489Z" fill="white"/>
</svg>
