<svg width="24" height="24" viewBox="0 0 24 24" fill="none" xmlns="http://www.w3.org/2000/svg">
<path fill-rule="evenodd" clip-rule="evenodd" d="M3 5.75C3 5.33579 3.36631 5 3.81818 5H20.1818C20.6337 5 21 5.33579 21 5.75C21 6.16421 20.6337 6.5 20.1818 6.5H3.81818C3.36631 6.5 3 6.16421 3 5.75ZM3 12.25C3 11.8358 3.36631 11.5 3.81818 11.5H20.1818C20.6337 11.5 21 11.8358 21 12.25C21 12.6642 20.6337 13 20.1818 13H3.81818C3.36631 13 3 12.6642 3 12.25ZM3 18.75C3 18.3358 3.36631 18 3.81818 18H20.1818C20.6337 18 21 18.3358 21 18.75C21 19.1642 20.6337 19.5 20.1818 19.5H3.81818C3.36631 19.5 3 19.1642 3 18.75Z" fill="white"/>
</svg>
