<svg width="160" height="160" viewBox="0 0 160 160" fill="none" xmlns="http://www.w3.org/2000/svg">
<path d="M0 0H4.32432V4.32432H0V0ZM4.32432 0H8.64865V4.32432H4.32432V0ZM8.64865 0H12.973V4.32432H8.64865V0ZM12.973 0H17.2973V4.32432H12.973V0ZM17.2973 0H21.6216V4.32432H17.2973V0ZM21.6216 0H25.9459V4.32432H21.6216V0ZM25.9459 0H30.2703V4.32432H25.9459V0ZM38.9189 0H43.2432V4.32432H38.9189V0ZM51.8919 0H56.2162V4.32432H51.8919V0ZM56.2162 0H60.5405V4.32432H56.2162V0ZM60.5405 0H64.8649V4.32432H60.5405V0ZM64.8649 0H69.1892V4.32432H64.8649V0ZM73.5135 0H77.8378V4.32432H73.5135V0ZM82.1622 0H86.4865V4.32432H82.1622V0ZM90.8108 0H95.1351V4.32432H90.8108V0ZM99.4595 0H103.784V4.32432H99.4595V0ZM103.784 0H108.108V4.32432H103.784V0ZM112.432 0H116.757V4.32432H112.432V0ZM121.081 0H125.405V4.32432H121.081V0ZM129.73 0H134.054V4.32432H129.73V0ZM134.054 0H138.378V4.32432H134.054V0ZM138.378 0H142.703V4.32432H138.378V0ZM142.703 0H147.027V4.32432H142.703V0ZM147.027 0H151.351V4.32432H147.027V0ZM151.351 0H155.676V4.32432H151.351V0ZM155.676 0H160V4.32432H155.676V0ZM0 4.32432H4.32432V8.64865H0V4.32432ZM25.9459 4.32432H30.2703V8.64865H25.9459V4.32432ZM34.5946 4.32432H38.9189V8.64865H34.5946V4.32432ZM38.9189 4.32432H43.2432V8.64865H38.9189V4.32432ZM47.5676 4.32432H51.8919V8.64865H47.5676V4.32432ZM86.4865 4.32432H90.8108V8.64865H86.4865V4.32432ZM90.8108 4.32432H95.1351V8.64865H90.8108V4.32432ZM121.081 4.32432H125.405V8.64865H121.081V4.32432ZM129.73 4.32432H134.054V8.64865H129.73V4.32432ZM155.676 4.32432H160V8.64865H155.676V4.32432ZM0 8.64865H4.32432V12.973H0V8.64865ZM8.64865 8.64865H12.973V12.973H8.64865V8.64865ZM12.973 8.64865H17.2973V12.973H12.973V8.64865ZM17.2973 8.64865H21.6216V12.973H17.2973V8.64865ZM25.9459 8.64865H30.2703V12.973H25.9459V8.64865ZM64.8649 8.64865H69.1892V12.973H64.8649V8.64865ZM69.1892 8.64865H73.5135V12.973H69.1892V8.64865ZM90.8108 8.64865H95.1351V12.973H90.8108V8.64865ZM103.784 8.64865H108.108V12.973H103.784V8.64865ZM108.108 8.64865H112.432V12.973H108.108V8.64865ZM116.757 8.64865H121.081V12.973H116.757V8.64865ZM129.73 8.64865H134.054V12.973H129.73V8.64865ZM138.378 8.64865H142.703V12.973H138.378V8.64865ZM142.703 8.64865H147.027V12.973H142.703V8.64865ZM147.027 8.64865H151.351V12.973H147.027V8.64865ZM155.676 8.64865H160V12.973H155.676V8.64865ZM0 12.973H4.32432V17.2973H0V12.973ZM8.64865 12.973H12.973V17.2973H8.64865V12.973ZM12.973 12.973H17.2973V17.2973H12.973V12.973ZM17.2973 12.973H21.6216V17.2973H17.2973V12.973ZM25.9459 12.973H30.2703V17.2973H25.9459V12.973ZM34.5946 12.973H38.9189V17.2973H34.5946V12.973ZM38.9189 12.973H43.2432V17.2973H38.9189V12.973ZM43.2432 12.973H47.5676V17.2973H43.2432V12.973ZM51.8919 12.973H56.2162V17.2973H51.8919V12.973ZM56.2162 12.973H60.5405V17.2973H56.2162V12.973ZM77.8378 12.973H82.1622V17.2973H77.8378V12.973ZM86.4865 12.973H90.8108V17.2973H86.4865V12.973ZM90.8108 12.973H95.1351V17.2973H90.8108V12.973ZM95.1351 12.973H99.4595V17.2973H95.1351V12.973ZM108.108 12.973H112.432V17.2973H108.108V12.973ZM116.757 12.973H121.081V17.2973H116.757V12.973ZM121.081 12.973H125.405V17.2973H121.081V12.973ZM129.73 12.973H134.054V17.2973H129.73V12.973ZM138.378 12.973H142.703V17.2973H138.378V12.973ZM142.703 12.973H147.027V17.2973H142.703V12.973ZM147.027 12.973H151.351V17.2973H147.027V12.973ZM155.676 12.973H160V17.2973H155.676V12.973ZM0 17.2973H4.32432V21.6216H0V17.2973ZM8.64865 17.2973H12.973V21.6216H8.64865V17.2973ZM12.973 17.2973H17.2973V21.6216H12.973V17.2973ZM17.2973 17.2973H21.6216V21.6216H17.2973V17.2973ZM25.9459 17.2973H30.2703V21.6216H25.9459V17.2973ZM34.5946 17.2973H38.9189V21.6216H34.5946V17.2973ZM43.2432 17.2973H47.5676V21.6216H43.2432V17.2973ZM51.8919 17.2973H56.2162V21.6216H51.8919V17.2973ZM60.5405 17.2973H64.8649V21.6216H60.5405V17.2973ZM64.8649 17.2973H69.1892V21.6216H64.8649V17.2973ZM69.1892 17.2973H73.5135V21.6216H69.1892V17.2973ZM73.5135 17.2973H77.8378V21.6216H73.5135V17.2973ZM77.8378 17.2973H82.1622V21.6216H77.8378V17.2973ZM82.1622 17.2973H86.4865V21.6216H82.1622V17.2973ZM86.4865 17.2973H90.8108V21.6216H86.4865V17.2973ZM90.8108 17.2973H95.1351V21.6216H90.8108V17.2973ZM103.784 17.2973H108.108V21.6216H103.784V17.2973ZM112.432 17.2973H116.757V21.6216H112.432V17.2973ZM129.73 17.2973H134.054V21.6216H129.73V17.2973ZM138.378 17.2973H142.703V21.6216H138.378V17.2973ZM142.703 17.2973H147.027V21.6216H142.703V17.2973ZM147.027 17.2973H151.351V21.6216H147.027V17.2973ZM155.676 17.2973H160V21.6216H155.676V17.2973ZM0 21.6216H4.32432V25.9459H0V21.6216ZM25.9459 21.6216H30.2703V25.9459H25.9459V21.6216ZM47.5676 21.6216H51.8919V25.9459H47.5676V21.6216ZM51.8919 21.6216H56.2162V25.9459H51.8919V21.6216ZM56.2162 21.6216H60.5405V25.9459H56.2162V21.6216ZM60.5405 21.6216H64.8649V25.9459H60.5405V21.6216ZM86.4865 21.6216H90.8108V25.9459H86.4865V21.6216ZM95.1351 21.6216H99.4595V25.9459H95.1351V21.6216ZM99.4595 21.6216H103.784V25.9459H99.4595V21.6216ZM103.784 21.6216H108.108V25.9459H103.784V21.6216ZM129.73 21.6216H134.054V25.9459H129.73V21.6216ZM155.676 21.6216H160V25.9459H155.676V21.6216ZM0 25.9459H4.32432V30.2703H0V25.9459ZM4.32432 25.9459H8.64865V30.2703H4.32432V25.9459ZM8.64865 25.9459H12.973V30.2703H8.64865V25.9459ZM12.973 25.9459H17.2973V30.2703H12.973V25.9459ZM17.2973 25.9459H21.6216V30.2703H17.2973V25.9459ZM21.6216 25.9459H25.9459V30.2703H21.6216V25.9459ZM25.9459 25.9459H30.2703V30.2703H25.9459V25.9459ZM34.5946 25.9459H38.9189V30.2703H34.5946V25.9459ZM43.2432 25.9459H47.5676V30.2703H43.2432V25.9459ZM51.8919 25.9459H56.2162V30.2703H51.8919V25.9459ZM60.5405 25.9459H64.8649V30.2703H60.5405V25.9459ZM69.1892 25.9459H73.5135V30.2703H69.1892V25.9459ZM77.8378 25.9459H82.1622V30.2703H77.8378V25.9459ZM86.4865 25.9459H90.8108V30.2703H86.4865V25.9459ZM95.1351 25.9459H99.4595V30.2703H95.1351V25.9459ZM103.784 25.9459H108.108V30.2703H103.784V25.9459ZM112.432 25.9459H116.757V30.2703H112.432V25.9459ZM121.081 25.9459H125.405V30.2703H121.081V25.9459ZM129.73 25.9459H134.054V30.2703H129.73V25.9459ZM134.054 25.9459H138.378V30.2703H134.054V25.9459ZM138.378 25.9459H142.703V30.2703H138.378V25.9459ZM142.703 25.9459H147.027V30.2703H142.703V25.9459ZM147.027 25.9459H151.351V30.2703H147.027V25.9459ZM151.351 25.9459H155.676V30.2703H151.351V25.9459ZM155.676 25.9459H160V30.2703H155.676V25.9459ZM34.5946 30.2703H38.9189V34.5946H34.5946V30.2703ZM38.9189 30.2703H43.2432V34.5946H38.9189V30.2703ZM51.8919 30.2703H56.2162V34.5946H51.8919V30.2703ZM56.2162 30.2703H60.5405V34.5946H56.2162V30.2703ZM77.8378 30.2703H82.1622V34.5946H77.8378V30.2703ZM82.1622 30.2703H86.4865V34.5946H82.1622V30.2703ZM95.1351 30.2703H99.4595V34.5946H95.1351V30.2703ZM108.108 30.2703H112.432V34.5946H108.108V30.2703ZM116.757 30.2703H121.081V34.5946H116.757V30.2703ZM121.081 30.2703H125.405V34.5946H121.081V30.2703ZM4.32432 34.5946H8.64865V38.9189H4.32432V34.5946ZM12.973 34.5946H17.2973V38.9189H12.973V34.5946ZM17.2973 34.5946H21.6216V38.9189H17.2973V34.5946ZM21.6216 34.5946H25.9459V38.9189H21.6216V34.5946ZM25.9459 34.5946H30.2703V38.9189H25.9459V34.5946ZM34.5946 34.5946H38.9189V38.9189H34.5946V34.5946ZM38.9189 34.5946H43.2432V38.9189H38.9189V34.5946ZM51.8919 34.5946H56.2162V38.9189H51.8919V34.5946ZM60.5405 34.5946H64.8649V38.9189H60.5405V34.5946ZM64.8649 34.5946H69.1892V38.9189H64.8649V34.5946ZM77.8378 34.5946H82.1622V38.9189H77.8378V34.5946ZM82.1622 34.5946H86.4865V38.9189H82.1622V34.5946ZM86.4865 34.5946H90.8108V38.9189H86.4865V34.5946ZM103.784 34.5946H108.108V38.9189H103.784V34.5946ZM108.108 34.5946H112.432V38.9189H108.108V34.5946ZM121.081 34.5946H125.405V38.9189H121.081V34.5946ZM125.405 34.5946H129.73V38.9189H125.405V34.5946ZM129.73 34.5946H134.054V38.9189H129.73V34.5946ZM138.378 34.5946H142.703V38.9189H138.378V34.5946ZM142.703 34.5946H147.027V38.9189H142.703V34.5946ZM151.351 34.5946H155.676V38.9189H151.351V34.5946ZM8.64865 38.9189H12.973V43.2432H8.64865V38.9189ZM12.973 38.9189H17.2973V43.2432H12.973V38.9189ZM17.2973 38.9189H21.6216V43.2432H17.2973V38.9189ZM43.2432 38.9189H47.5676V43.2432H43.2432V38.9189ZM47.5676 38.9189H51.8919V43.2432H47.5676V38.9189ZM51.8919 38.9189H56.2162V43.2432H51.8919V38.9189ZM56.2162 38.9189H60.5405V43.2432H56.2162V38.9189ZM64.8649 38.9189H69.1892V43.2432H64.8649V38.9189ZM69.1892 38.9189H73.5135V43.2432H69.1892V38.9189ZM73.5135 38.9189H77.8378V43.2432H73.5135V38.9189ZM77.8378 38.9189H82.1622V43.2432H77.8378V38.9189ZM82.1622 38.9189H86.4865V43.2432H82.1622V38.9189ZM99.4595 38.9189H103.784V43.2432H99.4595V38.9189ZM108.108 38.9189H112.432V43.2432H108.108V38.9189ZM125.405 38.9189H129.73V43.2432H125.405V38.9189ZM138.378 38.9189H142.703V43.2432H138.378V38.9189ZM147.027 38.9189H151.351V43.2432H147.027V38.9189ZM151.351 38.9189H155.676V43.2432H151.351V38.9189ZM0 43.2432H4.32432V47.5676H0V43.2432ZM4.32432 43.2432H8.64865V47.5676H4.32432V43.2432ZM8.64865 43.2432H12.973V47.5676H8.64865V43.2432ZM12.973 43.2432H17.2973V47.5676H12.973V43.2432ZM17.2973 43.2432H21.6216V47.5676H17.2973V43.2432ZM25.9459 43.2432H30.2703V47.5676H25.9459V43.2432ZM30.2703 43.2432H34.5946V47.5676H30.2703V43.2432ZM34.5946 43.2432H38.9189V47.5676H34.5946V43.2432ZM51.8919 43.2432H56.2162V47.5676H51.8919V43.2432ZM64.8649 43.2432H69.1892V47.5676H64.8649V43.2432ZM73.5135 43.2432H77.8378V47.5676H73.5135V43.2432ZM77.8378 43.2432H82.1622V47.5676H77.8378V43.2432ZM86.4865 43.2432H90.8108V47.5676H86.4865V43.2432ZM90.8108 43.2432H95.1351V47.5676H90.8108V43.2432ZM99.4595 43.2432H103.784V47.5676H99.4595V43.2432ZM108.108 43.2432H112.432V47.5676H108.108V43.2432ZM125.405 43.2432H129.73V47.5676H125.405V43.2432ZM129.73 43.2432H134.054V47.5676H129.73V43.2432ZM138.378 43.2432H142.703V47.5676H138.378V43.2432ZM147.027 43.2432H151.351V47.5676H147.027V43.2432ZM155.676 43.2432H160V47.5676H155.676V43.2432ZM12.973 47.5676H17.2973V51.8919H12.973V47.5676ZM17.2973 47.5676H21.6216V51.8919H17.2973V47.5676ZM21.6216 47.5676H25.9459V51.8919H21.6216V47.5676ZM38.9189 47.5676H43.2432V51.8919H38.9189V47.5676ZM43.2432 47.5676H47.5676V51.8919H43.2432V47.5676ZM64.8649 47.5676H69.1892V51.8919H64.8649V47.5676ZM77.8378 47.5676H82.1622V51.8919H77.8378V47.5676ZM86.4865 47.5676H90.8108V51.8919H86.4865V47.5676ZM112.432 47.5676H116.757V51.8919H112.432V47.5676ZM116.757 47.5676H121.081V51.8919H116.757V47.5676ZM125.405 47.5676H129.73V51.8919H125.405V47.5676ZM129.73 47.5676H134.054V51.8919H129.73V47.5676ZM138.378 47.5676H142.703V51.8919H138.378V47.5676ZM147.027 47.5676H151.351V51.8919H147.027V47.5676ZM4.32432 51.8919H8.64865V56.2162H4.32432V51.8919ZM17.2973 51.8919H21.6216V56.2162H17.2973V51.8919ZM25.9459 51.8919H30.2703V56.2162H25.9459V51.8919ZM34.5946 51.8919H38.9189V56.2162H34.5946V51.8919ZM38.9189 51.8919H43.2432V56.2162H38.9189V51.8919ZM43.2432 51.8919H47.5676V56.2162H43.2432V51.8919ZM47.5676 51.8919H51.8919V56.2162H47.5676V51.8919ZM51.8919 51.8919H56.2162V56.2162H51.8919V51.8919ZM69.1892 51.8919H73.5135V56.2162H69.1892V51.8919ZM77.8378 51.8919H82.1622V56.2162H77.8378V51.8919ZM95.1351 51.8919H99.4595V56.2162H95.1351V51.8919ZM121.081 51.8919H125.405V56.2162H121.081V51.8919ZM129.73 51.8919H134.054V56.2162H129.73V51.8919ZM0 56.2162H4.32432V60.5405H0V56.2162ZM8.64865 56.2162H12.973V60.5405H8.64865V56.2162ZM34.5946 56.2162H38.9189V60.5405H34.5946V56.2162ZM43.2432 56.2162H47.5676V60.5405H43.2432V56.2162ZM47.5676 56.2162H51.8919V60.5405H47.5676V56.2162ZM56.2162 56.2162H60.5405V60.5405H56.2162V56.2162ZM69.1892 56.2162H73.5135V60.5405H69.1892V56.2162ZM77.8378 56.2162H82.1622V60.5405H77.8378V56.2162ZM86.4865 56.2162H90.8108V60.5405H86.4865V56.2162ZM90.8108 56.2162H95.1351V60.5405H90.8108V56.2162ZM95.1351 56.2162H99.4595V60.5405H95.1351V56.2162ZM99.4595 56.2162H103.784V60.5405H99.4595V56.2162ZM112.432 56.2162H116.757V60.5405H112.432V56.2162ZM116.757 56.2162H121.081V60.5405H116.757V56.2162ZM121.081 56.2162H125.405V60.5405H121.081V56.2162ZM125.405 56.2162H129.73V60.5405H125.405V56.2162ZM138.378 56.2162H142.703V60.5405H138.378V56.2162ZM147.027 56.2162H151.351V60.5405H147.027V56.2162ZM151.351 56.2162H155.676V60.5405H151.351V56.2162ZM8.64865 60.5405H12.973V64.8649H8.64865V60.5405ZM12.973 60.5405H17.2973V64.8649H12.973V60.5405ZM25.9459 60.5405H30.2703V64.8649H25.9459V60.5405ZM30.2703 60.5405H34.5946V64.8649H30.2703V60.5405ZM51.8919 60.5405H56.2162V64.8649H51.8919V60.5405ZM60.5405 60.5405H64.8649V64.8649H60.5405V60.5405ZM64.8649 60.5405H69.1892V64.8649H64.8649V60.5405ZM69.1892 60.5405H73.5135V64.8649H69.1892V60.5405ZM77.8378 60.5405H82.1622V64.8649H77.8378V60.5405ZM86.4865 60.5405H90.8108V64.8649H86.4865V60.5405ZM103.784 60.5405H108.108V64.8649H103.784V60.5405ZM112.432 60.5405H116.757V64.8649H112.432V60.5405ZM116.757 60.5405H121.081V64.8649H116.757V60.5405ZM125.405 60.5405H129.73V64.8649H125.405V60.5405ZM138.378 60.5405H142.703V64.8649H138.378V60.5405ZM142.703 60.5405H147.027V64.8649H142.703V60.5405ZM147.027 60.5405H151.351V64.8649H147.027V60.5405ZM151.351 60.5405H155.676V64.8649H151.351V60.5405ZM155.676 60.5405H160V64.8649H155.676V60.5405ZM12.973 64.8649H17.2973V69.1892H12.973V64.8649ZM30.2703 64.8649H34.5946V69.1892H30.2703V64.8649ZM38.9189 64.8649H43.2432V69.1892H38.9189V64.8649ZM43.2432 64.8649H47.5676V69.1892H43.2432V64.8649ZM47.5676 64.8649H51.8919V69.1892H47.5676V64.8649ZM51.8919 64.8649H56.2162V69.1892H51.8919V64.8649ZM56.2162 64.8649H60.5405V69.1892H56.2162V64.8649ZM60.5405 64.8649H64.8649V69.1892H60.5405V64.8649ZM73.5135 64.8649H77.8378V69.1892H73.5135V64.8649ZM77.8378 64.8649H82.1622V69.1892H77.8378V64.8649ZM82.1622 64.8649H86.4865V69.1892H82.1622V64.8649ZM90.8108 64.8649H95.1351V69.1892H90.8108V64.8649ZM95.1351 64.8649H99.4595V69.1892H95.1351V64.8649ZM103.784 64.8649H108.108V69.1892H103.784V64.8649ZM121.081 64.8649H125.405V69.1892H121.081V64.8649ZM138.378 64.8649H142.703V69.1892H138.378V64.8649ZM142.703 64.8649H147.027V69.1892H142.703V64.8649ZM147.027 64.8649H151.351V69.1892H147.027V64.8649ZM155.676 64.8649H160V69.1892H155.676V64.8649ZM4.32432 69.1892H8.64865V73.5135H4.32432V69.1892ZM8.64865 69.1892H12.973V73.5135H8.64865V69.1892ZM25.9459 69.1892H30.2703V73.5135H25.9459V69.1892ZM34.5946 69.1892H38.9189V73.5135H34.5946V69.1892ZM56.2162 69.1892H60.5405V73.5135H56.2162V69.1892ZM60.5405 69.1892H64.8649V73.5135H60.5405V69.1892ZM69.1892 69.1892H73.5135V73.5135H69.1892V69.1892ZM77.8378 69.1892H82.1622V73.5135H77.8378V69.1892ZM82.1622 69.1892H86.4865V73.5135H82.1622V69.1892ZM90.8108 69.1892H95.1351V73.5135H90.8108V69.1892ZM95.1351 69.1892H99.4595V73.5135H95.1351V69.1892ZM99.4595 69.1892H103.784V73.5135H99.4595V69.1892ZM103.784 69.1892H108.108V73.5135H103.784V69.1892ZM108.108 69.1892H112.432V73.5135H108.108V69.1892ZM129.73 69.1892H134.054V73.5135H129.73V69.1892ZM147.027 69.1892H151.351V73.5135H147.027V69.1892ZM151.351 69.1892H155.676V73.5135H151.351V69.1892ZM155.676 69.1892H160V73.5135H155.676V69.1892ZM0 73.5135H4.32432V77.8378H0V73.5135ZM8.64865 73.5135H12.973V77.8378H8.64865V73.5135ZM12.973 73.5135H17.2973V77.8378H12.973V73.5135ZM17.2973 73.5135H21.6216V77.8378H17.2973V73.5135ZM21.6216 73.5135H25.9459V77.8378H21.6216V73.5135ZM34.5946 73.5135H38.9189V77.8378H34.5946V73.5135ZM43.2432 73.5135H47.5676V77.8378H43.2432V73.5135ZM47.5676 73.5135H51.8919V77.8378H47.5676V73.5135ZM51.8919 73.5135H56.2162V77.8378H51.8919V73.5135ZM56.2162 73.5135H60.5405V77.8378H56.2162V73.5135ZM73.5135 73.5135H77.8378V77.8378H73.5135V73.5135ZM90.8108 73.5135H95.1351V77.8378H90.8108V73.5135ZM95.1351 73.5135H99.4595V77.8378H95.1351V73.5135ZM99.4595 73.5135H103.784V77.8378H99.4595V73.5135ZM112.432 73.5135H116.757V77.8378H112.432V73.5135ZM116.757 73.5135H121.081V77.8378H116.757V73.5135ZM125.405 73.5135H129.73V77.8378H125.405V73.5135ZM147.027 73.5135H151.351V77.8378H147.027V73.5135ZM151.351 73.5135H155.676V77.8378H151.351V73.5135ZM4.32432 77.8378H8.64865V82.1622H4.32432V77.8378ZM25.9459 77.8378H30.2703V82.1622H25.9459V77.8378ZM30.2703 77.8378H34.5946V82.1622H30.2703V77.8378ZM34.5946 77.8378H38.9189V82.1622H34.5946V77.8378ZM47.5676 77.8378H51.8919V82.1622H47.5676V77.8378ZM56.2162 77.8378H60.5405V82.1622H56.2162V77.8378ZM82.1622 77.8378H86.4865V82.1622H82.1622V77.8378ZM86.4865 77.8378H90.8108V82.1622H86.4865V77.8378ZM103.784 77.8378H108.108V82.1622H103.784V77.8378ZM112.432 77.8378H116.757V82.1622H112.432V77.8378ZM116.757 77.8378H121.081V82.1622H116.757V77.8378ZM129.73 77.8378H134.054V82.1622H129.73V77.8378ZM138.378 77.8378H142.703V82.1622H138.378V77.8378ZM142.703 77.8378H147.027V82.1622H142.703V77.8378ZM147.027 77.8378H151.351V82.1622H147.027V77.8378ZM155.676 77.8378H160V82.1622H155.676V77.8378ZM0 82.1622H4.32432V86.4865H0V82.1622ZM4.32432 82.1622H8.64865V86.4865H4.32432V82.1622ZM56.2162 82.1622H60.5405V86.4865H56.2162V82.1622ZM60.5405 82.1622H64.8649V86.4865H60.5405V82.1622ZM69.1892 82.1622H73.5135V86.4865H69.1892V82.1622ZM73.5135 82.1622H77.8378V86.4865H73.5135V82.1622ZM77.8378 82.1622H82.1622V86.4865H77.8378V82.1622ZM86.4865 82.1622H90.8108V86.4865H86.4865V82.1622ZM99.4595 82.1622H103.784V86.4865H99.4595V82.1622ZM108.108 82.1622H112.432V86.4865H108.108V82.1622ZM116.757 82.1622H121.081V86.4865H116.757V82.1622ZM121.081 82.1622H125.405V86.4865H121.081V82.1622ZM129.73 82.1622H134.054V86.4865H129.73V82.1622ZM138.378 82.1622H142.703V86.4865H138.378V82.1622ZM142.703 82.1622H147.027V86.4865H142.703V82.1622ZM151.351 82.1622H155.676V86.4865H151.351V82.1622ZM8.64865 86.4865H12.973V90.8108H8.64865V86.4865ZM17.2973 86.4865H21.6216V90.8108H17.2973V86.4865ZM25.9459 86.4865H30.2703V90.8108H25.9459V86.4865ZM30.2703 86.4865H34.5946V90.8108H30.2703V86.4865ZM38.9189 86.4865H43.2432V90.8108H38.9189V86.4865ZM43.2432 86.4865H47.5676V90.8108H43.2432V86.4865ZM47.5676 86.4865H51.8919V90.8108H47.5676V86.4865ZM64.8649 86.4865H69.1892V90.8108H64.8649V86.4865ZM73.5135 86.4865H77.8378V90.8108H73.5135V86.4865ZM99.4595 86.4865H103.784V90.8108H99.4595V86.4865ZM103.784 86.4865H108.108V90.8108H103.784V86.4865ZM121.081 86.4865H125.405V90.8108H121.081V86.4865ZM129.73 86.4865H134.054V90.8108H129.73V86.4865ZM138.378 86.4865H142.703V90.8108H138.378V86.4865ZM142.703 86.4865H147.027V90.8108H142.703V86.4865ZM155.676 86.4865H160V90.8108H155.676V86.4865ZM4.32432 90.8108H8.64865V95.1351H4.32432V90.8108ZM8.64865 90.8108H12.973V95.1351H8.64865V90.8108ZM17.2973 90.8108H21.6216V95.1351H17.2973V90.8108ZM30.2703 90.8108H34.5946V95.1351H30.2703V90.8108ZM43.2432 90.8108H47.5676V95.1351H43.2432V90.8108ZM47.5676 90.8108H51.8919V95.1351H47.5676V90.8108ZM51.8919 90.8108H56.2162V95.1351H51.8919V90.8108ZM60.5405 90.8108H64.8649V95.1351H60.5405V90.8108ZM69.1892 90.8108H73.5135V95.1351H69.1892V90.8108ZM73.5135 90.8108H77.8378V95.1351H73.5135V90.8108ZM82.1622 90.8108H86.4865V95.1351H82.1622V90.8108ZM95.1351 90.8108H99.4595V95.1351H95.1351V90.8108ZM99.4595 90.8108H103.784V95.1351H99.4595V90.8108ZM108.108 90.8108H112.432V95.1351H108.108V90.8108ZM112.432 90.8108H116.757V95.1351H112.432V90.8108ZM116.757 90.8108H121.081V95.1351H116.757V90.8108ZM121.081 90.8108H125.405V95.1351H121.081V90.8108ZM134.054 90.8108H138.378V95.1351H134.054V90.8108ZM138.378 90.8108H142.703V95.1351H138.378V90.8108ZM147.027 90.8108H151.351V95.1351H147.027V90.8108ZM151.351 90.8108H155.676V95.1351H151.351V90.8108ZM4.32432 95.1351H8.64865V99.4595H4.32432V95.1351ZM8.64865 95.1351H12.973V99.4595H8.64865V95.1351ZM17.2973 95.1351H21.6216V99.4595H17.2973V95.1351ZM21.6216 95.1351H25.9459V99.4595H21.6216V95.1351ZM25.9459 95.1351H30.2703V99.4595H25.9459V95.1351ZM30.2703 95.1351H34.5946V99.4595H30.2703V95.1351ZM38.9189 95.1351H43.2432V99.4595H38.9189V95.1351ZM47.5676 95.1351H51.8919V99.4595H47.5676V95.1351ZM64.8649 95.1351H69.1892V99.4595H64.8649V95.1351ZM69.1892 95.1351H73.5135V99.4595H69.1892V95.1351ZM73.5135 95.1351H77.8378V99.4595H73.5135V95.1351ZM77.8378 95.1351H82.1622V99.4595H77.8378V95.1351ZM82.1622 95.1351H86.4865V99.4595H82.1622V95.1351ZM86.4865 95.1351H90.8108V99.4595H86.4865V95.1351ZM90.8108 95.1351H95.1351V99.4595H90.8108V95.1351ZM99.4595 95.1351H103.784V99.4595H99.4595V95.1351ZM108.108 95.1351H112.432V99.4595H108.108V95.1351ZM116.757 95.1351H121.081V99.4595H116.757V95.1351ZM129.73 95.1351H134.054V99.4595H129.73V95.1351ZM138.378 95.1351H142.703V99.4595H138.378V95.1351ZM142.703 95.1351H147.027V99.4595H142.703V95.1351ZM151.351 95.1351H155.676V99.4595H151.351V95.1351ZM155.676 95.1351H160V99.4595H155.676V95.1351ZM0 99.4595H4.32432V103.784H0V99.4595ZM12.973 99.4595H17.2973V103.784H12.973V99.4595ZM17.2973 99.4595H21.6216V103.784H17.2973V99.4595ZM30.2703 99.4595H34.5946V103.784H30.2703V99.4595ZM38.9189 99.4595H43.2432V103.784H38.9189V99.4595ZM43.2432 99.4595H47.5676V103.784H43.2432V99.4595ZM47.5676 99.4595H51.8919V103.784H47.5676V99.4595ZM64.8649 99.4595H69.1892V103.784H64.8649V99.4595ZM82.1622 99.4595H86.4865V103.784H82.1622V99.4595ZM95.1351 99.4595H99.4595V103.784H95.1351V99.4595ZM99.4595 99.4595H103.784V103.784H99.4595V99.4595ZM103.784 99.4595H108.108V103.784H103.784V99.4595ZM108.108 99.4595H112.432V103.784H108.108V99.4595ZM116.757 99.4595H121.081V103.784H116.757V99.4595ZM121.081 99.4595H125.405V103.784H121.081V99.4595ZM125.405 99.4595H129.73V103.784H125.405V99.4595ZM134.054 99.4595H138.378V103.784H134.054V99.4595ZM142.703 99.4595H147.027V103.784H142.703V99.4595ZM147.027 99.4595H151.351V103.784H147.027V99.4595ZM151.351 99.4595H155.676V103.784H151.351V99.4595ZM155.676 99.4595H160V103.784H155.676V99.4595ZM0 103.784H4.32432V108.108H0V103.784ZM4.32432 103.784H8.64865V108.108H4.32432V103.784ZM8.64865 103.784H12.973V108.108H8.64865V103.784ZM21.6216 103.784H25.9459V108.108H21.6216V103.784ZM25.9459 103.784H30.2703V108.108H25.9459V103.784ZM30.2703 103.784H34.5946V108.108H30.2703V103.784ZM47.5676 103.784H51.8919V108.108H47.5676V103.784ZM51.8919 103.784H56.2162V108.108H51.8919V103.784ZM56.2162 103.784H60.5405V108.108H56.2162V103.784ZM60.5405 103.784H64.8649V108.108H60.5405V103.784ZM69.1892 103.784H73.5135V108.108H69.1892V103.784ZM77.8378 103.784H82.1622V108.108H77.8378V103.784ZM82.1622 103.784H86.4865V108.108H82.1622V103.784ZM103.784 103.784H108.108V108.108H103.784V103.784ZM108.108 103.784H112.432V108.108H108.108V103.784ZM121.081 103.784H125.405V108.108H121.081V103.784ZM125.405 103.784H129.73V108.108H125.405V103.784ZM129.73 103.784H134.054V108.108H129.73V103.784ZM142.703 103.784H147.027V108.108H142.703V103.784ZM151.351 103.784H155.676V108.108H151.351V103.784ZM0 108.108H4.32432V112.432H0V108.108ZM4.32432 108.108H8.64865V112.432H4.32432V108.108ZM12.973 108.108H17.2973V112.432H12.973V108.108ZM17.2973 108.108H21.6216V112.432H17.2973V108.108ZM30.2703 108.108H34.5946V112.432H30.2703V108.108ZM43.2432 108.108H47.5676V112.432H43.2432V108.108ZM47.5676 108.108H51.8919V112.432H47.5676V108.108ZM56.2162 108.108H60.5405V112.432H56.2162V108.108ZM60.5405 108.108H64.8649V112.432H60.5405V108.108ZM69.1892 108.108H73.5135V112.432H69.1892V108.108ZM73.5135 108.108H77.8378V112.432H73.5135V108.108ZM86.4865 108.108H90.8108V112.432H86.4865V108.108ZM95.1351 108.108H99.4595V112.432H95.1351V108.108ZM99.4595 108.108H103.784V112.432H99.4595V108.108ZM103.784 108.108H108.108V112.432H103.784V108.108ZM108.108 108.108H112.432V112.432H108.108V108.108ZM112.432 108.108H116.757V112.432H112.432V108.108ZM125.405 108.108H129.73V112.432H125.405V108.108ZM134.054 108.108H138.378V112.432H134.054V108.108ZM138.378 108.108H142.703V112.432H138.378V108.108ZM147.027 108.108H151.351V112.432H147.027V108.108ZM0 112.432H4.32432V116.757H0V112.432ZM4.32432 112.432H8.64865V116.757H4.32432V112.432ZM8.64865 112.432H12.973V116.757H8.64865V112.432ZM12.973 112.432H17.2973V116.757H12.973V112.432ZM25.9459 112.432H30.2703V116.757H25.9459V112.432ZM34.5946 112.432H38.9189V116.757H34.5946V112.432ZM38.9189 112.432H43.2432V116.757H38.9189V112.432ZM47.5676 112.432H51.8919V116.757H47.5676V112.432ZM51.8919 112.432H56.2162V116.757H51.8919V112.432ZM56.2162 112.432H60.5405V116.757H56.2162V112.432ZM60.5405 112.432H64.8649V116.757H60.5405V112.432ZM73.5135 112.432H77.8378V116.757H73.5135V112.432ZM82.1622 112.432H86.4865V116.757H82.1622V112.432ZM108.108 112.432H112.432V116.757H108.108V112.432ZM116.757 112.432H121.081V116.757H116.757V112.432ZM129.73 112.432H134.054V116.757H129.73V112.432ZM142.703 112.432H147.027V116.757H142.703V112.432ZM147.027 112.432H151.351V116.757H147.027V112.432ZM155.676 112.432H160V116.757H155.676V112.432ZM0 116.757H4.32432V121.081H0V116.757ZM8.64865 116.757H12.973V121.081H8.64865V116.757ZM12.973 116.757H17.2973V121.081H12.973V116.757ZM38.9189 116.757H43.2432V121.081H38.9189V116.757ZM43.2432 116.757H47.5676V121.081H43.2432V116.757ZM47.5676 116.757H51.8919V121.081H47.5676V116.757ZM51.8919 116.757H56.2162V121.081H51.8919V116.757ZM60.5405 116.757H64.8649V121.081H60.5405V116.757ZM69.1892 116.757H73.5135V121.081H69.1892V116.757ZM77.8378 116.757H82.1622V121.081H77.8378V116.757ZM82.1622 116.757H86.4865V121.081H82.1622V116.757ZM86.4865 116.757H90.8108V121.081H86.4865V116.757ZM95.1351 116.757H99.4595V121.081H95.1351V116.757ZM99.4595 116.757H103.784V121.081H99.4595V116.757ZM103.784 116.757H108.108V121.081H103.784V116.757ZM121.081 116.757H125.405V121.081H121.081V116.757ZM125.405 116.757H129.73V121.081H125.405V116.757ZM134.054 116.757H138.378V121.081H134.054V116.757ZM138.378 116.757H142.703V121.081H138.378V116.757ZM147.027 116.757H151.351V121.081H147.027V116.757ZM155.676 116.757H160V121.081H155.676V116.757ZM0 121.081H4.32432V125.405H0V121.081ZM12.973 121.081H17.2973V125.405H12.973V121.081ZM21.6216 121.081H25.9459V125.405H21.6216V121.081ZM25.9459 121.081H30.2703V125.405H25.9459V121.081ZM30.2703 121.081H34.5946V125.405H30.2703V121.081ZM34.5946 121.081H38.9189V125.405H34.5946V121.081ZM38.9189 121.081H43.2432V125.405H38.9189V121.081ZM43.2432 121.081H47.5676V125.405H43.2432V121.081ZM56.2162 121.081H60.5405V125.405H56.2162V121.081ZM64.8649 121.081H69.1892V125.405H64.8649V121.081ZM86.4865 121.081H90.8108V125.405H86.4865V121.081ZM99.4595 121.081H103.784V125.405H99.4595V121.081ZM108.108 121.081H112.432V125.405H108.108V121.081ZM116.757 121.081H121.081V125.405H116.757V121.081ZM121.081 121.081H125.405V125.405H121.081V121.081ZM125.405 121.081H129.73V125.405H125.405V121.081ZM129.73 121.081H134.054V125.405H129.73V121.081ZM134.054 121.081H138.378V125.405H134.054V121.081ZM138.378 121.081H142.703V125.405H138.378V121.081ZM147.027 121.081H151.351V125.405H147.027V121.081ZM151.351 121.081H155.676V125.405H151.351V121.081ZM155.676 121.081H160V125.405H155.676V121.081ZM34.5946 125.405H38.9189V129.73H34.5946V125.405ZM47.5676 125.405H51.8919V129.73H47.5676V125.405ZM56.2162 125.405H60.5405V129.73H56.2162V125.405ZM64.8649 125.405H69.1892V129.73H64.8649V125.405ZM69.1892 125.405H73.5135V129.73H69.1892V125.405ZM73.5135 125.405H77.8378V129.73H73.5135V125.405ZM77.8378 125.405H82.1622V129.73H77.8378V125.405ZM82.1622 125.405H86.4865V129.73H82.1622V125.405ZM112.432 125.405H116.757V129.73H112.432V125.405ZM121.081 125.405H125.405V129.73H121.081V125.405ZM138.378 125.405H142.703V129.73H138.378V125.405ZM142.703 125.405H147.027V129.73H142.703V125.405ZM147.027 125.405H151.351V129.73H147.027V125.405ZM0 129.73H4.32432V134.054H0V129.73ZM4.32432 129.73H8.64865V134.054H4.32432V129.73ZM8.64865 129.73H12.973V134.054H8.64865V129.73ZM12.973 129.73H17.2973V134.054H12.973V129.73ZM17.2973 129.73H21.6216V134.054H17.2973V129.73ZM21.6216 129.73H25.9459V134.054H21.6216V129.73ZM25.9459 129.73H30.2703V134.054H25.9459V129.73ZM43.2432 129.73H47.5676V134.054H43.2432V129.73ZM47.5676 129.73H51.8919V134.054H47.5676V129.73ZM56.2162 129.73H60.5405V134.054H56.2162V129.73ZM60.5405 129.73H64.8649V134.054H60.5405V129.73ZM64.8649 129.73H69.1892V134.054H64.8649V129.73ZM86.4865 129.73H90.8108V134.054H86.4865V129.73ZM90.8108 129.73H95.1351V134.054H90.8108V129.73ZM95.1351 129.73H99.4595V134.054H95.1351V129.73ZM99.4595 129.73H103.784V134.054H99.4595V129.73ZM103.784 129.73H108.108V134.054H103.784V129.73ZM108.108 129.73H112.432V134.054H108.108V129.73ZM121.081 129.73H125.405V134.054H121.081V129.73ZM129.73 129.73H134.054V134.054H129.73V129.73ZM138.378 129.73H142.703V134.054H138.378V129.73ZM142.703 129.73H147.027V134.054H142.703V129.73ZM147.027 129.73H151.351V134.054H147.027V129.73ZM155.676 129.73H160V134.054H155.676V129.73ZM0 134.054H4.32432V138.378H0V134.054ZM25.9459 134.054H30.2703V138.378H25.9459V134.054ZM34.5946 134.054H38.9189V138.378H34.5946V134.054ZM47.5676 134.054H51.8919V138.378H47.5676V134.054ZM64.8649 134.054H69.1892V138.378H64.8649V134.054ZM69.1892 134.054H73.5135V138.378H69.1892V134.054ZM77.8378 134.054H82.1622V138.378H77.8378V134.054ZM86.4865 134.054H90.8108V138.378H86.4865V134.054ZM95.1351 134.054H99.4595V138.378H95.1351V134.054ZM103.784 134.054H108.108V138.378H103.784V134.054ZM108.108 134.054H112.432V138.378H108.108V134.054ZM116.757 134.054H121.081V138.378H116.757V134.054ZM121.081 134.054H125.405V138.378H121.081V134.054ZM138.378 134.054H142.703V138.378H138.378V134.054ZM142.703 134.054H147.027V138.378H142.703V134.054ZM151.351 134.054H155.676V138.378H151.351V134.054ZM155.676 134.054H160V138.378H155.676V134.054ZM0 138.378H4.32432V142.703H0V138.378ZM8.64865 138.378H12.973V142.703H8.64865V138.378ZM12.973 138.378H17.2973V142.703H12.973V138.378ZM17.2973 138.378H21.6216V142.703H17.2973V138.378ZM25.9459 138.378H30.2703V142.703H25.9459V138.378ZM34.5946 138.378H38.9189V142.703H34.5946V138.378ZM38.9189 138.378H43.2432V142.703H38.9189V138.378ZM47.5676 138.378H51.8919V142.703H47.5676V138.378ZM51.8919 138.378H56.2162V142.703H51.8919V138.378ZM56.2162 138.378H60.5405V142.703H56.2162V138.378ZM73.5135 138.378H77.8378V142.703H73.5135V138.378ZM90.8108 138.378H95.1351V142.703H90.8108V138.378ZM95.1351 138.378H99.4595V142.703H95.1351V138.378ZM112.432 138.378H116.757V142.703H112.432V138.378ZM116.757 138.378H121.081V142.703H116.757V138.378ZM121.081 138.378H125.405V142.703H121.081V138.378ZM125.405 138.378H129.73V142.703H125.405V138.378ZM129.73 138.378H134.054V142.703H129.73V138.378ZM134.054 138.378H138.378V142.703H134.054V138.378ZM138.378 138.378H142.703V142.703H138.378V138.378ZM155.676 138.378H160V142.703H155.676V138.378ZM0 142.703H4.32432V147.027H0V142.703ZM8.64865 142.703H12.973V147.027H8.64865V142.703ZM12.973 142.703H17.2973V147.027H12.973V142.703ZM17.2973 142.703H21.6216V147.027H17.2973V142.703ZM25.9459 142.703H30.2703V147.027H25.9459V142.703ZM34.5946 142.703H38.9189V147.027H34.5946V142.703ZM38.9189 142.703H43.2432V147.027H38.9189V142.703ZM47.5676 142.703H51.8919V147.027H47.5676V142.703ZM51.8919 142.703H56.2162V147.027H51.8919V142.703ZM56.2162 142.703H60.5405V147.027H56.2162V142.703ZM60.5405 142.703H64.8649V147.027H60.5405V142.703ZM64.8649 142.703H69.1892V147.027H64.8649V142.703ZM69.1892 142.703H73.5135V147.027H69.1892V142.703ZM73.5135 142.703H77.8378V147.027H73.5135V142.703ZM103.784 142.703H108.108V147.027H103.784V142.703ZM108.108 142.703H112.432V147.027H108.108V142.703ZM116.757 142.703H121.081V147.027H116.757V142.703ZM121.081 142.703H125.405V147.027H121.081V142.703ZM129.73 142.703H134.054V147.027H129.73V142.703ZM134.054 142.703H138.378V147.027H134.054V142.703ZM142.703 142.703H147.027V147.027H142.703V142.703ZM151.351 142.703H155.676V147.027H151.351V142.703ZM0 147.027H4.32432V151.351H0V147.027ZM8.64865 147.027H12.973V151.351H8.64865V147.027ZM12.973 147.027H17.2973V151.351H12.973V147.027ZM17.2973 147.027H21.6216V151.351H17.2973V147.027ZM25.9459 147.027H30.2703V151.351H25.9459V147.027ZM38.9189 147.027H43.2432V151.351H38.9189V147.027ZM47.5676 147.027H51.8919V151.351H47.5676V147.027ZM60.5405 147.027H64.8649V151.351H60.5405V147.027ZM64.8649 147.027H69.1892V151.351H64.8649V147.027ZM77.8378 147.027H82.1622V151.351H77.8378V147.027ZM82.1622 147.027H86.4865V151.351H82.1622V147.027ZM86.4865 147.027H90.8108V151.351H86.4865V147.027ZM99.4595 147.027H103.784V151.351H99.4595V147.027ZM108.108 147.027H112.432V151.351H108.108V147.027ZM121.081 147.027H125.405V151.351H121.081V147.027ZM134.054 147.027H138.378V151.351H134.054V147.027ZM138.378 147.027H142.703V151.351H138.378V147.027ZM142.703 147.027H147.027V151.351H142.703V147.027ZM151.351 147.027H155.676V151.351H151.351V147.027ZM155.676 147.027H160V151.351H155.676V147.027ZM0 151.351H4.32432V155.676H0V151.351ZM25.9459 151.351H30.2703V155.676H25.9459V151.351ZM34.5946 151.351H38.9189V155.676H34.5946V151.351ZM43.2432 151.351H47.5676V155.676H43.2432V151.351ZM51.8919 151.351H56.2162V155.676H51.8919V151.351ZM69.1892 151.351H73.5135V155.676H69.1892V151.351ZM82.1622 151.351H86.4865V155.676H82.1622V151.351ZM86.4865 151.351H90.8108V155.676H86.4865V151.351ZM99.4595 151.351H103.784V155.676H99.4595V151.351ZM103.784 151.351H108.108V155.676H103.784V151.351ZM112.432 151.351H116.757V155.676H112.432V151.351ZM125.405 151.351H129.73V155.676H125.405V151.351ZM129.73 151.351H134.054V155.676H129.73V151.351ZM134.054 151.351H138.378V155.676H134.054V151.351ZM138.378 151.351H142.703V155.676H138.378V151.351ZM142.703 151.351H147.027V155.676H142.703V151.351ZM147.027 151.351H151.351V155.676H147.027V151.351ZM151.351 151.351H155.676V155.676H151.351V151.351ZM155.676 151.351H160V155.676H155.676V151.351ZM0 155.676H4.32432V160H0V155.676ZM4.32432 155.676H8.64865V160H4.32432V155.676ZM8.64865 155.676H12.973V160H8.64865V155.676ZM12.973 155.676H17.2973V160H12.973V155.676ZM17.2973 155.676H21.6216V160H17.2973V155.676ZM21.6216 155.676H25.9459V160H21.6216V155.676ZM25.9459 155.676H30.2703V160H25.9459V155.676ZM43.2432 155.676H47.5676V160H43.2432V155.676ZM47.5676 155.676H51.8919V160H47.5676V155.676ZM51.8919 155.676H56.2162V160H51.8919V155.676ZM64.8649 155.676H69.1892V160H64.8649V155.676ZM69.1892 155.676H73.5135V160H69.1892V155.676ZM77.8378 155.676H82.1622V160H77.8378V155.676ZM95.1351 155.676H99.4595V160H95.1351V155.676ZM99.4595 155.676H103.784V160H99.4595V155.676ZM103.784 155.676H108.108V160H103.784V155.676ZM121.081 155.676H125.405V160H121.081V155.676ZM142.703 155.676H147.027V160H142.703V155.676ZM155.676 155.676H160V160H155.676V155.676Z" fill="white"/>
</svg>
