<svg width="40" height="40" viewBox="0 0 40 40" fill="none" xmlns="http://www.w3.org/2000/svg">
<rect width="40" height="40" fill="#010101"/>
<path fill-rule="evenodd" clip-rule="evenodd" d="M17.4528 28V23.1618C17.6916 23.1618 17.8559 23.1663 18.0193 23.161C18.3905 23.1496 18.7617 23.139 19.1329 23.1288C19.574 23.1168 20.0152 23.1052 20.4563 23.0936L20.476 23.0931C22.4835 23.0404 24.4908 22.9878 26.4953 22.8799C27.9877 22.7994 29.4565 22.4855 30.8182 21.8129C32.0592 21.1984 32.8117 20.2516 32.8625 18.863C32.8925 18.008 32.9007 17.1524 32.8671 16.2993C32.8199 15.0954 32.2671 14.137 31.1704 13.559C30.5235 13.2118 29.8387 12.9363 29.1288 12.7377C27.0445 12.1745 24.8967 12.0402 22.747 12.026C18.5815 11.9991 14.4153 11.9996 10.249 12.0001L8.40396 12.0005C8.33617 12.0005 8.26888 12.0045 8.20006 12.0103C8.14749 12.0148 8.09404 12.0205 8.03881 12.0264L8.03462 12.0269L8 12.0305V28H17.4528ZM17.491 19.0557V16.0951C17.9789 16.1118 18.4642 16.1241 18.9472 16.1363L18.9657 16.1368H18.9715C20.094 16.1655 21.2048 16.1938 22.3113 16.2746C23.1919 16.3409 23.4152 16.7254 23.4007 17.689C23.388 18.4599 23.1002 18.8514 22.2759 18.9018C21.1719 18.9692 20.0649 18.9942 18.9454 19.0194C18.4631 19.0303 17.9786 19.0413 17.491 19.0557Z" fill="white"/>
</svg>
